<?xml version="1.0" encoding="utf-8"?>
<!-- Generator: Adobe Illustrator 27.3.0, SVG Export Plug-In . SVG Version: 6.00 Build 0)  -->
<svg version="1.1" id="Layer_1" xmlns="http://www.w3.org/2000/svg" xmlns:xlink="http://www.w3.org/1999/xlink" x="0px" y="0px"
	 viewBox="0 0 849 266.3" style="enable-background:new 0 0 849 266.3;" xml:space="preserve">
<style type="text/css">
	.st0{display:none;}
	.st1{display:inline;}
	.st2{fill:#FFFFFF;}
	.st3{fill:#F7942E;}
	.st4{fill:#00162F;}
</style>
<g id="Layer_1_00000175314350671551642640000011639863544778738603_" class="st0">
	<g class="st1">
		<g>
			<path class="st2" d="M0.1,240H17v4.1H4.7v6.3h11.7v4.1H4.7v6.9h13v4.1H0.1V240z"/>
			<path class="st2" d="M31.5,252.2L23,240h5.7l6,9.4l5.9-9.4h5.5l-8.4,12.2l9.3,13.3h-5.8l-6.7-10.8l-6.7,10.8h-5.5L31.5,252.2z"/>
			<path class="st2" d="M68.6,246c-0.9-1-1.8-1.7-2.7-2s-1.8-0.5-2.6-0.5c-1.3,0-2.5,0.2-3.6,0.7s-2,1.1-2.8,1.9s-1.4,1.8-1.8,2.9
				c-0.4,1.1-0.6,2.3-0.6,3.6c0,1.4,0.2,2.6,0.6,3.8c0.4,1.2,1,2.1,1.8,3c0.8,0.8,1.7,1.5,2.8,2s2.3,0.7,3.6,0.7c1,0,2-0.2,3-0.7
				s1.9-1.3,2.7-2.4l3.7,2.7c-1.2,1.6-2.6,2.7-4.2,3.5c-1.7,0.7-3.4,1.1-5.3,1.1c-2,0-3.8-0.3-5.4-1s-3.1-1.5-4.2-2.7
				s-2.1-2.6-2.8-4.2c-0.7-1.6-1-3.4-1-5.4s0.3-3.9,1-5.6s1.6-3.1,2.8-4.3s2.6-2.1,4.2-2.7s3.5-1,5.4-1c1.7,0,3.3,0.3,4.8,0.9
				s2.8,1.7,4.1,3.1L68.6,246z"/>
			<path class="st2" d="M78.2,240h16.9v4.1H82.8v6.3h11.7v4.1H82.8v6.9h13v4.1H78.3V240H78.2z"/>
			<path class="st2" d="M102.7,240h4.5v21.4h10.9v4.1h-15.4V240z"/>
			<path class="st2" d="M123.7,240h4.5v21.4H139v4.1h-15.4V240H123.7z"/>
			<path class="st2" d="M144.6,240h16.9v4.1h-12.3v6.3h11.7v4.1h-11.7v6.9h13v4.1h-17.5V240H144.6z"/>
			<path class="st2" d="M169.2,240h6l12.3,18.9h0.1V240h4.5v25.5h-5.8L173.7,246h-0.1v19.5h-4.5V240H169.2z"/>
			<path class="st2" d="M217.8,246c-0.9-1-1.8-1.7-2.7-2c-0.9-0.3-1.8-0.5-2.6-0.5c-1.3,0-2.5,0.2-3.6,0.7s-2,1.1-2.8,1.9
				s-1.4,1.8-1.8,2.9s-0.6,2.3-0.6,3.6c0,1.4,0.2,2.6,0.6,3.8c0.4,1.2,1,2.1,1.8,3c0.8,0.8,1.7,1.5,2.8,2c1.1,0.5,2.3,0.7,3.6,0.7
				c1,0,2-0.2,3-0.7s1.9-1.3,2.7-2.4l3.7,2.7c-1.2,1.6-2.6,2.7-4.2,3.5c-1.7,0.7-3.4,1.1-5.3,1.1c-2,0-3.8-0.3-5.4-1
				c-1.6-0.6-3.1-1.5-4.2-2.7s-2.1-2.6-2.8-4.2c-0.7-1.6-1-3.4-1-5.4s0.3-3.9,1-5.6s1.6-3.1,2.8-4.3s2.6-2.1,4.2-2.7s3.4-1,5.4-1
				c1.7,0,3.3,0.3,4.8,0.9s2.8,1.7,4.1,3.1L217.8,246z"/>
			<path class="st2" d="M227.4,240h16.9v4.1H232v6.3h11.7v4.1H232v6.9h13v4.1h-17.5V240H227.4z"/>
			<path class="st2" d="M265.4,240h4.5v25.5h-4.5V240z"/>
			<path class="st2" d="M278,240h6l12.3,18.9h0.1V240h4.5v25.5h-5.8L282.5,246h-0.1v19.5h-4.5V240H278z"/>
			<path class="st2" d="M322.9,240h6.9l6.8,17.9l6.9-17.9h6.8v25.5H346v-21.2h-0.1l-7.7,21.2h-3.1l-7.7-21.2h-0.1v21.2H323V240
				H322.9z"/>
			<path class="st2" d="M358.6,240h16.9v4.1h-12.4v6.3h11.7v4.1h-11.7v6.9h13v4.1h-17.5V240z"/>
			<path class="st2" d="M383.1,240h10c1.7,0,3.3,0.3,4.9,0.8c1.6,0.5,2.9,1.3,4.1,2.4c1.2,1.1,2.2,2.4,2.9,4s1.1,3.5,1.1,5.6
				c0,2.2-0.4,4.1-1.2,5.7c-0.8,1.6-1.9,2.9-3.2,4c-1.3,1.1-2.8,1.8-4.4,2.3c-1.6,0.5-3.2,0.8-4.7,0.8h-9.5V240z M391.1,261.4
				c1.4,0,2.8-0.2,4-0.5c1.3-0.3,2.4-0.8,3.3-1.5c0.9-0.7,1.7-1.6,2.2-2.7c0.5-1.1,0.8-2.4,0.8-4c0-1.5-0.2-2.9-0.7-4s-1.1-2-2-2.7
				s-1.9-1.2-3-1.5c-1.2-0.3-2.4-0.5-3.8-0.5h-4.1v17.3h3.3V261.4z"/>
			<path class="st2" d="M412.9,240h4.5v25.5h-4.5V240z"/>
			<path class="st2" d="M443,246c-0.9-1-1.8-1.7-2.7-2s-1.8-0.5-2.6-0.5c-1.3,0-2.5,0.2-3.6,0.7s-2,1.1-2.8,1.9s-1.4,1.8-1.8,2.9
				c-0.4,1.1-0.6,2.3-0.6,3.6c0,1.4,0.2,2.6,0.6,3.8c0.4,1.2,1,2.1,1.8,3c0.8,0.8,1.7,1.5,2.8,2s2.3,0.7,3.6,0.7c1,0,2-0.2,3-0.7
				s1.9-1.3,2.7-2.4l3.7,2.7c-1.2,1.6-2.6,2.7-4.2,3.5c-1.7,0.7-3.4,1.1-5.3,1.1c-2,0-3.8-0.3-5.4-1c-1.6-0.6-3.1-1.5-4.2-2.7
				s-2.1-2.6-2.8-4.2c-0.7-1.6-1-3.4-1-5.4s0.3-3.9,1-5.6s1.6-3.1,2.8-4.3s2.6-2.1,4.2-2.7c1.6-0.6,3.4-1,5.4-1
				c1.7,0,3.3,0.3,4.8,0.9s2.8,1.7,4.1,3.1L443,246z"/>
			<path class="st2" d="M452.5,240h4.5v25.5h-4.5V240z"/>
			<path class="st2" d="M465.2,240h6l12.3,18.9h0.1V240h4.5v25.5h-5.8L469.7,246h-0.1v19.5h-4.5L465.2,240L465.2,240z"/>
			<path class="st2" d="M496.3,240h16.9v4.1h-12.3v6.3h11.7v4.1h-11.7v6.9h13v4.1h-17.5V240H496.3z"/>
			<path class="st2" d="M533.4,245.5c-0.5-0.7-1.1-1.2-1.9-1.5s-1.7-0.5-2.5-0.5c-0.5,0-1,0.1-1.5,0.2s-0.9,0.3-1.3,0.6
				c-0.4,0.3-0.7,0.6-1,1c-0.2,0.4-0.4,0.9-0.4,1.5c0,0.9,0.3,1.5,0.9,2s1.3,0.9,2.2,1.2c0.9,0.3,1.9,0.7,2.9,1
				c1.1,0.3,2,0.7,2.9,1.3c0.9,0.6,1.6,1.3,2.2,2.2c0.6,0.9,0.9,2.1,0.9,3.6c0,1.4-0.3,2.6-0.8,3.6s-1.2,1.9-2,2.5
				c-0.9,0.7-1.8,1.2-3,1.5c-1.1,0.3-2.3,0.5-3.6,0.5c-1.6,0-3.1-0.3-4.6-0.8s-2.7-1.4-3.8-2.7l3.4-3.3c0.6,0.8,1.3,1.5,2.2,2
				s1.9,0.7,2.9,0.7c0.5,0,1.1-0.1,1.6-0.2c0.5-0.1,1-0.4,1.4-0.6s0.8-0.7,1-1.1c0.3-0.4,0.4-1,0.4-1.5c0-0.9-0.3-1.7-0.9-2.2
				s-1.3-0.9-2.2-1.3c-0.9-0.3-1.9-0.7-2.9-1c-1.1-0.3-2-0.7-2.9-1.3c-0.9-0.5-1.6-1.3-2.2-2.2c-0.6-0.9-0.9-2.1-0.9-3.6
				c0-1.3,0.3-2.5,0.8-3.4s1.2-1.8,2.1-2.4c0.9-0.6,1.9-1.1,3-1.4s2.3-0.5,3.5-0.5c1.3,0,2.6,0.2,3.9,0.6s2.4,1.1,3.4,2L533.4,245.5
				z"/>
			<path class="st2" d="M557.7,240h10c1.7,0,3.3,0.3,4.9,0.8s2.9,1.3,4.1,2.4c1.2,1.1,2.2,2.4,2.9,4c0.7,1.6,1.1,3.5,1.1,5.6
				c0,2.2-0.4,4.1-1.2,5.7c-0.8,1.6-1.9,2.9-3.2,4c-1.3,1.1-2.8,1.8-4.4,2.3c-1.6,0.5-3.2,0.8-4.7,0.8h-9.5V240L557.7,240z
				 M565.6,261.4c1.4,0,2.8-0.2,4-0.5c1.3-0.3,2.4-0.8,3.3-1.5s1.7-1.6,2.2-2.7c0.5-1.1,0.8-2.4,0.8-4c0-1.5-0.2-2.9-0.7-4
				s-1.1-2-2-2.7s-1.9-1.2-3-1.5c-1.2-0.3-2.4-0.5-3.8-0.5h-4.1v17.3h3.3V261.4z"/>
			<path class="st2" d="M587.4,240h16.9v4.1H592v6.3h11.7v4.1H592v6.9h13v4.1h-17.5L587.4,240L587.4,240z"/>
			<path class="st2" d="M609.3,240h5.2l6.9,19.3l7.2-19.3h4.9l-10.3,25.5h-3.9L609.3,240z"/>
			<path class="st2" d="M638.8,240h16.9v4.1h-12.3v6.3h11.7v4.1h-11.7v6.9h13v4.1h-17.5L638.8,240L638.8,240z"/>
			<path class="st2" d="M663.3,240h4.5v21.4h10.8v4.1h-15.4V240H663.3z"/>
			<path class="st2" d="M682.4,252.9c0-2,0.3-3.9,1-5.6c0.7-1.7,1.6-3.1,2.8-4.3c1.2-1.2,2.6-2.1,4.2-2.7c1.6-0.6,3.5-1,5.4-1
				c2,0,3.8,0.3,5.5,0.9c1.7,0.6,3.1,1.5,4.3,2.7c1.2,1.2,2.1,2.6,2.8,4.2c0.7,1.6,1,3.5,1,5.5s-0.3,3.8-1,5.4
				c-0.7,1.6-1.6,3-2.8,4.2c-1.2,1.2-2.6,2.1-4.3,2.8c-1.7,0.7-3.5,1-5.5,1s-3.8-0.3-5.4-1c-1.6-0.7-3.1-1.5-4.2-2.7
				c-1.1-1.2-2.1-2.6-2.8-4.2C682.7,256.7,682.4,254.9,682.4,252.9z M687.1,252.6c0,1.4,0.2,2.6,0.6,3.8c0.4,1.2,1,2.1,1.8,3
				c0.8,0.8,1.7,1.5,2.8,2s2.3,0.7,3.6,0.7c1.3,0,2.5-0.2,3.6-0.7s2-1.1,2.8-2c0.8-0.8,1.4-1.8,1.8-3c0.4-1.2,0.6-2.4,0.6-3.8
				c0-1.3-0.2-2.5-0.6-3.6s-1-2.1-1.8-2.9c-0.8-0.8-1.7-1.5-2.8-1.9c-1.1-0.5-2.3-0.7-3.6-0.7c-1.3,0-2.5,0.2-3.6,0.7
				s-2,1.1-2.8,1.9c-0.8,0.8-1.4,1.8-1.8,2.9C687.4,250.1,687.1,251.3,687.1,252.6z"/>
			<path class="st2" d="M716.2,240h8.6c1.2,0,2.4,0.1,3.5,0.4c1.1,0.2,2.1,0.6,3,1.2s1.6,1.3,2.1,2.3c0.5,0.9,0.8,2.1,0.8,3.5
				c0,1.6-0.3,2.9-0.8,3.9c-0.6,1-1.3,1.7-2.2,2.3s-2,0.9-3.3,1.1c-1.2,0.2-2.5,0.3-3.9,0.3h-3.2v10.5h-4.5L716.2,240L716.2,240z
				 M723.5,251.1c0.6,0,1.3,0,2-0.1c0.7,0,1.3-0.2,1.9-0.4c0.6-0.2,1.1-0.6,1.4-1.1c0.4-0.5,0.6-1.2,0.6-2s-0.2-1.4-0.5-1.9
				c-0.3-0.5-0.8-0.8-1.3-1.1s-1.1-0.4-1.8-0.5c-0.7-0.1-1.3-0.1-1.9-0.1h-3.2v7.2H723.5z"/>
			<path class="st2" d="M740.1,240h6.9l6.8,17.9l6.9-17.9h6.8v25.5h-4.3v-21.2h-0.1l-7.7,21.2h-3.2l-7.7-21.2h-0.1v21.2h-4.3V240z"
				/>
			<path class="st2" d="M775.8,240h16.9v4.1h-12.3v6.3h11.7v4.1h-11.7v6.9h13v4.1h-17.5L775.8,240L775.8,240z"/>
			<path class="st2" d="M800.3,240h6l12.3,18.9h0.1V240h4.5v25.5h-5.8L804.8,246h-0.1v19.5h-4.5L800.3,240L800.3,240z"/>
			<path class="st2" d="M836.6,244.1h-7.8V240H849v4.1h-7.8v21.4h-4.5v-21.4H836.6z"/>
		</g>
	</g>
</g>
<g id="logos" class="st0">
	<g class="st1">
		<path class="st3" d="M726.3,3.4c-16.5,2.6-31.5,10.7-42.1,22.8c-10.7,12.1-16.6,27.8-16.6,44v51.2c0,13.8-4.6,26.5-13.2,36.8
			c-8.6,10.3-20.4,17-34.2,19.6l-0.3,0.1v10.3l0.5-0.1c16.2-2.8,30.9-11,41.4-23.1s15.9-27.6,15.9-43.6V70.2c0-14,5-26.9,13.8-37.2
			c8.8-10.3,20.9-17,34.9-19.4l0.3-0.1V3.3L726.3,3.4z"/>
		<path class="st3" d="M773,178.2c-33.9,0-61.5-27.6-61.5-61.5c0-34.1,27.6-61.8,61.5-61.8c10,0,19.6,2.4,28.4,7l7.3-7.7
			c-11-6.5-22.5-9.5-35.7-9.5c-39.5,0-71.7,32.2-71.7,71.7c0,39.7,32.2,72,71.7,72c12.3,0,24.9-3.4,35.8-9.4l-7.3-7.6
			C792.8,175.8,783.2,178.2,773,178.2z"/>
		<g>
			<path class="st2" d="M311.2,2.9c20.9,0,41.4,7.1,57.6,20l-7.3,8c-16-12.1-31.5-17.5-50.3-17.5c-45.3,0-82.2,37-82.2,82.5
				c0,45.1,36.9,81.8,82.2,81.8c18.6,0,34.7-5.5,50.6-17.4l7.1,7.9c-16.2,12.9-36.7,20-57.7,20c-51.1,0-92.6-41.5-92.6-92.6
				C218.6,44.4,260.1,2.9,311.2,2.9"/>
		</g>
		<path class="st2" d="M595.1,58.4V48.2h-48.2V19.5h-10.1V122c0,32.9,24.3,60.7,57.7,66l0.6,0.1v-10.4l-0.4-0.1
			c-28.1-4.8-47.8-27.7-47.8-55.6V58.4H595.1z"/>
		<g>
			<path class="st2" d="M503.8,58.6v19.9c-13.9-22.5-33.9-33.8-59.3-33.8c-40,0-70.2,30.6-70.2,71.2s30.8,72.5,70.2,72.5
				c24.7,0,43.1-10.3,59.3-33.3v29.8h10.1V58.6H503.8z M444,53.5c33.4,0,59.6,28.3,59.6,64.4c0,32.8-27.3,61.6-58.3,61.6
				c-33.3,0-60.3-28.2-60.3-62.9C384.9,81.2,410.8,53.5,444,53.5z"/>
		</g>
		<path class="st3" d="M93.3,17.8c-4.9,0-8.9-4-8.9-8.9s4-8.9,8.9-8.9s8.9,4,8.9,8.9S98.2,17.8,93.3,17.8"/>
		<path class="st2" d="M93.3,101.7c-4.9,0-8.9-4-8.9-8.9s4-8.9,8.9-8.9s8.9,4,8.9,8.9S98.2,101.7,93.3,101.7"/>
		<path class="st3" d="M93.3,186.2c-4.9,0-8.9-4-8.9-8.9s4-8.9,8.9-8.9s8.9,4,8.9,8.9S98.2,186.2,93.3,186.2"/>
		<path class="st3" d="M168.3,93.1c0-4.9,4-8.9,8.9-8.9s8.9,4,8.9,8.9s-4,8.9-8.9,8.9S168.3,98,168.3,93.1"/>
		<path class="st3" d="M0,93.1c0-4.9,4-8.9,8.9-8.9s8.9,4,8.9,8.9s-4,8.9-8.9,8.9C4,102,0,98,0,93.1"/>
		<rect x="831.4" y="44.6" class="st3" width="10" height="142.8"/>
		<ellipse class="st2" cx="836.4" cy="8.8" rx="8.5" ry="8.6"/>
	</g>
</g>
<g id="Layer_1_00000145745413867980957360000007164433002925155752_">
	<g>
		<g>
			<path class="st4" d="M0.2,235.8h16.9v4.1H4.8v6.3h11.7v4.1H4.8v6.9h13v4.1H0.2V235.8z"/>
			<path class="st4" d="M31.6,247.9l-8.5-12.2h5.7l6,9.4l5.9-9.4h5.5l-8.4,12.2l9.3,13.3h-5.8l-6.7-10.8l-6.7,10.8h-5.5L31.6,247.9z
				"/>
			<path class="st4" d="M68.7,241.8c-0.9-1-1.8-1.7-2.7-2s-1.8-0.5-2.6-0.5c-1.3,0-2.5,0.2-3.6,0.7s-2,1.1-2.8,1.9s-1.4,1.8-1.8,2.9
				c-0.4,1.1-0.6,2.3-0.6,3.6c0,1.4,0.2,2.6,0.6,3.8c0.4,1.2,1,2.1,1.8,3c0.8,0.8,1.7,1.5,2.8,2s2.3,0.7,3.6,0.7c1,0,2-0.2,3-0.7
				s1.9-1.3,2.7-2.4l3.7,2.7c-1.2,1.6-2.6,2.7-4.2,3.5c-1.7,0.7-3.4,1.1-5.3,1.1c-2,0-3.8-0.3-5.4-1s-3.1-1.5-4.2-2.7
				s-2.1-2.6-2.8-4.2s-1-3.4-1-5.4s0.3-3.9,1-5.6s1.6-3.1,2.8-4.3s2.6-2.1,4.2-2.7s3.5-1,5.4-1c1.7,0,3.3,0.3,4.8,0.9
				s2.8,1.7,4.1,3.1L68.7,241.8z"/>
			<path class="st4" d="M78.3,235.8h16.9v4.1H82.9v6.3h11.7v4.1H82.9v6.9h13v4.1H78.4v-25.5H78.3z"/>
			<path class="st4" d="M102.8,235.8h4.5v21.4h10.9v4.1h-15.4V235.8z"/>
			<path class="st4" d="M123.8,235.8h4.5v21.4h10.8v4.1h-15.4v-25.5H123.8z"/>
			<path class="st4" d="M144.7,235.8h16.9v4.1h-12.3v6.3H161v4.1h-11.7v6.9h13v4.1h-17.5v-25.5H144.7z"/>
			<path class="st4" d="M169.3,235.8h6l12.3,18.9h0.1v-18.9h4.5v25.5h-5.8l-12.6-19.5h-0.1v19.5h-4.5v-25.5H169.3z"/>
			<path class="st4" d="M217.9,241.8c-0.9-1-1.8-1.7-2.7-2c-0.9-0.3-1.8-0.5-2.6-0.5c-1.3,0-2.5,0.2-3.6,0.7s-2,1.1-2.8,1.9
				s-1.4,1.8-1.8,2.9s-0.6,2.3-0.6,3.6c0,1.4,0.2,2.6,0.6,3.8c0.4,1.2,1,2.1,1.8,3c0.8,0.8,1.7,1.5,2.8,2c1.1,0.5,2.3,0.7,3.6,0.7
				c1,0,2-0.2,3-0.7s1.9-1.3,2.7-2.4l3.7,2.7c-1.2,1.6-2.6,2.7-4.2,3.5c-1.7,0.7-3.4,1.1-5.3,1.1c-2,0-3.8-0.3-5.4-1
				c-1.6-0.6-3.1-1.5-4.2-2.7s-2.1-2.6-2.8-4.2c-0.7-1.6-1-3.4-1-5.4s0.3-3.9,1-5.6s1.6-3.1,2.8-4.3s2.6-2.1,4.2-2.7s3.4-1,5.4-1
				c1.7,0,3.3,0.3,4.8,0.9s2.8,1.7,4.1,3.1L217.9,241.8z"/>
			<path class="st4" d="M227.5,235.8h16.9v4.1h-12.3v6.3h11.7v4.1h-11.7v6.9h13v4.1h-17.5v-25.5H227.5z"/>
			<path class="st4" d="M265.5,235.8h4.5v25.5h-4.5V235.8z"/>
			<path class="st4" d="M278.1,235.8h6l12.3,18.9h0.1v-18.9h4.5v25.5h-5.8l-12.6-19.5h-0.1v19.5H278L278.1,235.8L278.1,235.8z"/>
			<path class="st4" d="M323,235.8h6.9l6.8,17.9l6.9-17.9h6.8v25.5h-4.3V240H346l-7.7,21.2h-3.1l-7.7-21.2h-0.1v21.2h-4.3L323,235.8
				L323,235.8z"/>
			<path class="st4" d="M358.7,235.8h16.9v4.1h-12.4v6.3h11.7v4.1h-11.7v6.9h13v4.1h-17.5V235.8z"/>
			<path class="st4" d="M383.2,235.8h10c1.7,0,3.3,0.3,4.9,0.8c1.6,0.5,2.9,1.3,4.1,2.4c1.2,1.1,2.2,2.4,2.9,4s1.1,3.5,1.1,5.6
				c0,2.2-0.4,4.1-1.2,5.7s-1.9,2.9-3.2,4s-2.8,1.8-4.4,2.3c-1.6,0.5-3.2,0.8-4.7,0.8h-9.5V235.8z M391.2,257.1c1.4,0,2.8-0.2,4-0.5
				c1.3-0.3,2.4-0.8,3.3-1.5c0.9-0.7,1.7-1.6,2.2-2.7s0.8-2.4,0.8-4c0-1.5-0.2-2.9-0.7-4s-1.1-2-2-2.7s-1.9-1.2-3-1.5
				c-1.2-0.3-2.4-0.5-3.8-0.5h-4.1V257h3.3V257.1z"/>
			<path class="st4" d="M413,235.8h4.5v25.5H413V235.8z"/>
			<path class="st4" d="M443.1,241.8c-0.9-1-1.8-1.7-2.7-2s-1.8-0.5-2.6-0.5c-1.3,0-2.5,0.2-3.6,0.7s-2,1.1-2.8,1.9
				s-1.4,1.8-1.8,2.9c-0.4,1.1-0.6,2.3-0.6,3.6c0,1.4,0.2,2.6,0.6,3.8c0.4,1.2,1,2.1,1.8,3c0.8,0.8,1.7,1.5,2.8,2s2.3,0.7,3.6,0.7
				c1,0,2-0.2,3-0.7s1.9-1.3,2.7-2.4l3.7,2.7c-1.2,1.6-2.6,2.7-4.2,3.5c-1.7,0.7-3.4,1.1-5.3,1.1c-2,0-3.8-0.3-5.4-1
				c-1.6-0.6-3.1-1.5-4.2-2.7s-2.1-2.6-2.8-4.2s-1-3.4-1-5.4s0.3-3.9,1-5.6s1.6-3.1,2.8-4.3s2.6-2.1,4.2-2.7c1.6-0.6,3.4-1,5.4-1
				c1.7,0,3.3,0.3,4.8,0.9s2.8,1.7,4.1,3.1L443.1,241.8z"/>
			<path class="st4" d="M452.6,235.8h4.5v25.5h-4.5V235.8z"/>
			<path class="st4" d="M465.3,235.8h6l12.3,18.9h0.1v-18.9h4.5v25.5h-5.8l-12.6-19.5h-0.1v19.5h-4.5L465.3,235.8L465.3,235.8z"/>
			<path class="st4" d="M496.4,235.8h16.9v4.1H501v6.3h11.7v4.1H501v6.9h13v4.1h-17.5v-25.5H496.4z"/>
			<path class="st4" d="M533.5,241.2c-0.5-0.7-1.1-1.2-1.9-1.5c-0.8-0.3-1.7-0.5-2.5-0.5c-0.5,0-1,0.1-1.5,0.2s-0.9,0.3-1.3,0.6
				c-0.4,0.3-0.7,0.6-1,1c-0.2,0.4-0.4,0.9-0.4,1.5c0,0.9,0.3,1.5,0.9,2c0.6,0.5,1.3,0.9,2.2,1.2c0.9,0.3,1.9,0.7,2.9,1
				c1.1,0.3,2,0.7,2.9,1.3c0.9,0.6,1.6,1.3,2.2,2.2c0.6,0.9,0.9,2.1,0.9,3.6c0,1.4-0.3,2.6-0.8,3.6s-1.2,1.9-2,2.5
				c-0.9,0.7-1.8,1.2-3,1.5c-1.1,0.3-2.3,0.5-3.6,0.5c-1.6,0-3.1-0.3-4.6-0.8s-2.7-1.4-3.8-2.7l3.4-3.3c0.6,0.8,1.3,1.5,2.2,2
				s1.9,0.7,2.9,0.7c0.5,0,1.1-0.1,1.6-0.2s1-0.4,1.4-0.6s0.8-0.7,1-1.1c0.3-0.4,0.4-1,0.4-1.5c0-0.9-0.3-1.7-0.9-2.2
				c-0.6-0.5-1.3-0.9-2.2-1.3c-0.9-0.3-1.9-0.7-2.9-1c-1.1-0.3-2-0.7-2.9-1.3c-0.9-0.5-1.6-1.3-2.2-2.2c-0.6-0.9-0.9-2.1-0.9-3.6
				c0-1.3,0.3-2.5,0.8-3.4s1.2-1.8,2.1-2.4c0.9-0.6,1.9-1.1,3-1.4s2.3-0.5,3.5-0.5c1.3,0,2.6,0.2,3.9,0.6c1.3,0.4,2.4,1.1,3.4,2
				L533.5,241.2z"/>
			<path class="st4" d="M557.8,235.8h10c1.7,0,3.3,0.3,4.9,0.8c1.6,0.5,2.9,1.3,4.1,2.4c1.2,1.1,2.2,2.4,2.9,4s1.1,3.5,1.1,5.6
				c0,2.2-0.4,4.1-1.2,5.7s-1.9,2.9-3.2,4s-2.8,1.8-4.4,2.3c-1.6,0.5-3.2,0.8-4.7,0.8h-9.5L557.8,235.8L557.8,235.8z M565.7,257.1
				c1.4,0,2.8-0.2,4-0.5c1.3-0.3,2.4-0.8,3.3-1.5c0.9-0.7,1.7-1.6,2.2-2.7s0.8-2.4,0.8-4c0-1.5-0.2-2.9-0.7-4s-1.1-2-2-2.7
				s-1.9-1.2-3-1.5c-1.2-0.3-2.4-0.5-3.8-0.5h-4.1V257h3.3V257.1z"/>
			<path class="st4" d="M587.5,235.8h16.9v4.1h-12.3v6.3h11.7v4.1h-11.7v6.9h13v4.1h-17.5v-25.5H587.5z"/>
			<path class="st4" d="M609.4,235.8h5.2l6.9,19.3l7.2-19.3h4.9l-10.3,25.5h-3.9L609.4,235.8z"/>
			<path class="st4" d="M638.9,235.8h16.9v4.1h-12.3v6.3h11.7v4.1h-11.7v6.9h13v4.1H639v-25.5H638.9z"/>
			<path class="st4" d="M663.4,235.8h4.5v21.4h10.8v4.1h-15.4v-25.5H663.4z"/>
			<path class="st4" d="M682.5,248.6c0-2,0.3-3.9,1-5.6s1.6-3.1,2.8-4.3s2.6-2.1,4.2-2.7s3.5-1,5.4-1c2,0,3.8,0.3,5.5,0.9
				s3.1,1.5,4.3,2.7s2.1,2.6,2.8,4.2s1,3.5,1,5.5s-0.3,3.8-1,5.4s-1.6,3-2.8,4.2s-2.6,2.1-4.3,2.8c-1.7,0.7-3.5,1-5.5,1
				s-3.8-0.3-5.4-1s-3.1-1.5-4.2-2.7s-2.1-2.6-2.8-4.2C682.8,252.4,682.5,250.6,682.5,248.6z M687.2,248.4c0,1.4,0.2,2.6,0.6,3.8
				c0.4,1.2,1,2.1,1.8,3c0.8,0.8,1.7,1.5,2.8,2s2.3,0.7,3.6,0.7s2.5-0.2,3.6-0.7s2-1.1,2.8-2c0.8-0.8,1.4-1.8,1.8-3
				c0.4-1.2,0.6-2.4,0.6-3.8c0-1.3-0.2-2.5-0.6-3.6c-0.4-1.1-1-2.1-1.8-2.9s-1.7-1.5-2.8-1.9c-1.1-0.5-2.3-0.7-3.6-0.7
				s-2.5,0.2-3.6,0.7s-2,1.1-2.8,1.9s-1.4,1.8-1.8,2.9C687.5,245.9,687.2,247,687.2,248.4z"/>
			<path class="st4" d="M716.3,235.8h8.6c1.2,0,2.4,0.1,3.5,0.4c1.1,0.2,2.1,0.6,3,1.2s1.6,1.3,2.1,2.3c0.5,0.9,0.8,2.1,0.8,3.5
				c0,1.6-0.3,2.9-0.8,3.9c-0.6,1-1.3,1.7-2.2,2.3s-2,0.9-3.3,1.1c-1.2,0.2-2.5,0.3-3.9,0.3h-3.2v10.5h-4.5L716.3,235.8L716.3,235.8
				z M723.6,246.9c0.6,0,1.3,0,2-0.1c0.7,0,1.3-0.2,1.9-0.4c0.6-0.2,1.1-0.6,1.4-1.1c0.4-0.5,0.6-1.2,0.6-2s-0.2-1.4-0.5-1.9
				s-0.8-0.8-1.3-1.1s-1.1-0.4-1.8-0.5s-1.3-0.1-1.9-0.1h-3.2v7.2H723.6z"/>
			<path class="st4" d="M740.2,235.8h6.9l6.8,17.9l6.9-17.9h6.8v25.5h-4.3V240h-0.1l-7.7,21.2h-3.2l-7.7-21.2h-0.1v21.2h-4.3V235.8z
				"/>
			<path class="st4" d="M775.9,235.8h16.9v4.1h-12.3v6.3h11.7v4.1h-11.7v6.9h13v4.1H776L775.9,235.8L775.9,235.8z"/>
			<path class="st4" d="M800.4,235.8h6l12.3,18.9h0.1v-18.9h4.5v25.5h-5.8l-12.6-19.5h-0.1v19.5h-4.5L800.4,235.8L800.4,235.8z"/>
			<path class="st4" d="M836.7,239.9h-7.8v-4.1h20.2v4.1h-7.8v21.4h-4.5v-21.4H836.7z"/>
		</g>
	</g>
</g>
<g id="logos_00000013893138306267354070000017685211675208097947_">
	<g>
		<path class="st3" d="M726.4,3.2c-16.5,2.6-31.5,10.7-42.1,22.8c-10.7,12.1-16.6,27.8-16.6,44v51.2c0,13.8-4.6,26.5-13.2,36.8
			c-8.6,10.3-20.4,17-34.2,19.6l-0.3,0.1v10.3l0.5-0.1c16.2-2.8,30.9-11,41.4-23.1s15.9-27.6,15.9-43.6V69.9c0-14,5-26.9,13.8-37.2
			s20.9-17,34.9-19.4l0.3-0.1V3L726.4,3.2z"/>
		<path class="st3" d="M773.1,177.9c-33.9,0-61.5-27.6-61.5-61.5c0-34.1,27.6-61.8,61.5-61.8c10,0,19.6,2.4,28.4,7l7.3-7.7
			c-11-6.5-22.5-9.5-35.7-9.5c-39.5,0-71.7,32.2-71.7,71.7c0,39.7,32.2,72,71.7,72c12.3,0,24.9-3.4,35.8-9.4l-7.3-7.6
			C792.9,175.5,783.3,177.9,773.1,177.9z"/>
		<g>
			<path class="st4" d="M311.3,2.7c20.9,0,41.4,7.1,57.6,20l-7.3,8c-16-12.1-31.5-17.5-50.3-17.5c-45.3,0-82.2,37-82.2,82.5
				c0,45.1,36.9,81.8,82.2,81.8c18.6,0,34.7-5.5,50.6-17.4l7.1,7.9c-16.2,12.9-36.7,20-57.7,20c-51.1,0-92.6-41.5-92.6-92.6
				C218.7,44.2,260.2,2.7,311.3,2.7"/>
		</g>
		<path class="st4" d="M595.2,58.2V48H547V19.3h-10.1v102.5c0,32.9,24.3,60.7,57.7,66l0.6,0.1v-10.4l-0.4-0.1
			c-28.1-4.8-47.8-27.7-47.8-55.6V58.2H595.2z"/>
		<g>
			<path class="st4" d="M503.9,58.3v19.9C490,55.7,470,44.4,444.6,44.4c-40,0-70.2,30.6-70.2,71.2s30.8,72.5,70.2,72.5
				c24.7,0,43.1-10.3,59.3-33.3v29.8H514V58.3H503.9z M444.1,53.3c33.4,0,59.6,28.3,59.6,64.4c0,32.8-27.3,61.6-58.3,61.6
				c-33.3,0-60.3-28.2-60.3-62.9C385,81,410.9,53.3,444.1,53.3z"/>
		</g>
		<path class="st3" d="M93.4,17.5c-4.9,0-8.9-4-8.9-8.9s4-8.9,8.9-8.9s8.9,4,8.9,8.9S98.3,17.5,93.4,17.5"/>
		<path class="st4" d="M93.4,101.5c-4.9,0-8.9-4-8.9-8.9s4-8.9,8.9-8.9s8.9,4,8.9,8.9S98.3,101.5,93.4,101.5"/>
		<path class="st3" d="M93.4,185.9c-4.9,0-8.9-4-8.9-8.9s4-8.9,8.9-8.9s8.9,4,8.9,8.9S98.3,185.9,93.4,185.9"/>
		<path class="st3" d="M168.4,92.8c0-4.9,4-8.9,8.9-8.9s8.9,4,8.9,8.9s-4,8.9-8.9,8.9S168.4,97.8,168.4,92.8"/>
		<path class="st3" d="M0.1,92.8C0.1,88,4.1,84,9,84s8.9,4,8.9,8.9s-4,8.9-8.9,8.9C4.1,101.8,0.1,97.8,0.1,92.8"/>
		<rect x="831.5" y="44.3" class="st3" width="10" height="142.8"/>
		<ellipse class="st4" cx="836.5" cy="8.6" rx="8.5" ry="8.6"/>
	</g>
</g>
</svg>
